<svg width="118" height="86" viewBox="0 0 118 86" fill="none" xmlns="http://www.w3.org/2000/svg">
<path d="M12.2979 58.7587L8.01747 58.0794L7.97392 58.3494L6.17119 58.48L6.24957 57.988C6.32795 57.4916 6.24086 57.1345 5.98395 56.9211L5.5398 56.3638L5.23499 58.2797L3.49757 58.0054L4.59924 51.0601L3.71094 50.9207L2.68765 57.3697L1.00684 57.435L3.04471 44.585C3.07954 44.3717 3.05777 44.2149 2.97939 44.1235C2.90972 44.019 2.80957 43.958 2.67023 43.9362H2.68329L3.11003 41.2408L3.9156 41.3671C4.22476 41.415 4.48603 41.5979 4.69939 41.9071C4.93453 42.2598 5.01291 42.6691 4.93889 43.1481L4.15509 48.086L5.04339 48.2254L6.132 41.3671L7.86942 41.6415L7.56461 43.5574L8.37453 43.0436C8.59661 42.8912 8.7316 42.6604 8.77949 42.3425L8.86658 41.7982L10.604 42.0725L10.5082 42.6822L15.1326 43.4137C16.0253 43.5661 16.3823 44.1931 16.2082 45.2905L14.0309 59.0243L13.1557 58.885L12.2935 58.75L12.2979 58.7587ZM8.48339 51.6828L6.33666 51.3431L6.02749 53.2765L7.48623 54.7788C7.64734 54.9312 7.79539 55.0618 7.93038 55.162L8.48339 51.6828ZM9.49362 45.3166C9.35428 45.4342 9.21494 45.5387 9.07995 45.6345L7.08562 46.6403L6.78952 48.5084L8.93625 48.848L9.4762 45.4342L9.49362 45.3166ZM11.9931 45.8348L11.2136 45.7128L9.67215 55.4406L10.4516 55.5669L11.9931 45.8391V45.8348ZM11.9713 55.8021L12.7507 55.9283L14.2269 46.6273C14.2704 46.3442 14.179 46.1875 13.9526 46.1483L13.5128 46.0786L11.9713 55.8064V55.8021Z" fill="#4C4C4C"/>
<path d="M8.60116 32.4667C8.84066 32.5233 9.04532 32.4144 9.21514 32.1401L9.49818 31.6872L11.0788 32.6844L9.98152 34.4305C9.51124 35.1751 8.84501 35.4277 7.98284 35.1838L5.82739 34.4741L7.3558 32.0443L8.59681 32.4623L8.60116 32.4667ZM21.9867 26.2311C22.7444 26.7232 22.8314 27.4373 22.2392 28.3779L19.5482 32.6539L19.9706 32.9195C20.1665 33.0415 20.3407 32.9805 20.4931 32.741L24.4382 26.4706L26.0189 27.4678L21.2116 35.1055C20.6063 36.0504 19.9227 36.2855 19.165 35.8065L15.7642 33.6642L15.3418 33.3985L14.9761 33.982L13.3606 33.4551L13.5913 33.0937C13.8613 32.667 13.9136 32.3143 13.7481 32.0356L13.5434 31.6829L12.9033 32.7018L11.4141 31.7656L12.3024 30.3548L11.4446 29.8148L10.7044 30.9949L9.31094 30.1153L10.0512 28.9352L9.38061 28.5129L10.909 26.0831L11.5796 26.5055L12.7596 24.6287L12.0891 24.2063L13.6175 21.7766L14.2881 22.1989L15.0588 20.9753L16.4522 21.8549L15.6815 23.0785L16.5349 23.6185L17.4494 22.1641L18.9386 23.1003L18.2332 24.2194H18.6904C18.9168 24.2978 19.1128 24.202 19.2782 23.9407L19.6005 23.4312L20.9939 24.3108L20.406 25.2427L21.978 26.2311H21.9867ZM12.1631 34.7092C12.4026 34.7658 12.6072 34.657 12.7771 34.3826L13.0601 33.9298L14.6408 34.9269L13.5434 36.6731C13.0732 37.4177 12.4069 37.6702 11.5491 37.4264L9.48511 36.7776L11.0135 34.3478L12.1631 34.7049V34.7092ZM14.1574 25.5083L12.9774 27.3851L13.8352 27.925L15.0152 26.0483L14.1618 25.5083H14.1574ZM15.5639 35.0271L18.1374 38.0665C18.5685 38.663 18.5423 39.3467 18.0633 40.1087L17.2404 41.4194L15.4376 40.7706L15.786 40.2176C15.9689 39.9258 15.9645 39.6733 15.7729 39.4599L14.0398 37.4525L15.5683 35.0227L15.5639 35.0271ZM16.6917 26.6796L15.1154 29.1834L15.7642 30.3635L17.8587 27.0324L17.985 26.8277C17.985 26.8277 17.9675 26.819 17.9632 26.8146L16.6873 26.6796H16.6917ZM19.8835 28.8133C20.0359 28.5695 20.0141 28.3866 19.8182 28.2647L19.3479 27.9686L17.2883 31.2431L18.0503 31.7221L19.8835 28.8133Z" fill="#4C4C4C"/>
<path d="M26.2788 24.6547L19.7515 15.223L20.7835 14.5089L21.8285 13.7861L23.0304 12.9544L24.0623 12.2402L25.1074 11.5174L31.9265 21.3715C32.4316 22.1204 32.2269 22.8128 31.3125 23.4485L27.3412 26.1962L26.8056 25.4211L26.2788 24.6591V24.6547ZM26.183 17.5091L24.0928 14.4915L22.891 15.3232L24.9811 18.3408L26.183 17.5091ZM34.9789 19.2552C35.484 20.0042 35.2794 20.6965 34.3649 21.3323L33.2197 22.1248L31.8437 20.8011L32.0266 20.6748C32.2617 20.5137 32.314 20.3351 32.1834 20.1479L25.8564 10.9992L32.8539 6.1571L39.673 16.0112C40.1781 16.7601 39.9734 17.4525 39.059 18.0882L37.4609 19.1943L36.0849 17.8705L36.7207 17.4307C36.9558 17.2696 37.0081 17.0911 36.8774 16.8995L35.7409 15.2579L33.3503 16.9125L34.9746 19.2596L34.9789 19.2552ZM26.048 19.8779L28.3558 23.2178L29.2049 22.6299C29.4401 22.4688 29.4923 22.2903 29.3617 22.103L27.2498 19.0506L26.048 19.8823V19.8779ZM32.6319 10.7554L31.6129 9.28794L29.2224 10.9426L30.2369 12.4101L32.6275 10.7597L32.6319 10.7554ZM34.6828 13.7164L33.6987 12.2925L31.3081 13.9428L32.2922 15.3667L34.6828 13.712V13.7164Z" fill="#4C4C4C"/>
<path d="M47.4256 14.104C47.0903 14.94 46.5111 15.4408 45.6882 15.6019L42.4659 16.2377L41.7343 14.4741L44.0944 14.0082C44.3731 13.9429 44.5647 13.7818 44.6649 13.5292L46.8726 8.6479L40.8025 9.84537L40.4411 8.01215L47.3385 6.65357L46.7593 3.70562L39.9969 5.03808L39.6355 3.20486L55.8949 0L56.2564 1.83322L49.5767 3.14825L50.1558 6.0962L56.9705 4.75504L57.3319 6.58825L50.1645 7.99909L47.4256 14.0996V14.104ZM55.7904 11.3999C56.0082 11.5654 56.2868 11.6133 56.6265 11.5479L58.2463 11.2301L58.6078 13.0633L56.1475 13.5466C55.0676 13.76 54.188 13.5902 53.5087 13.0372L50.1035 9.26187L53.1908 8.65661L55.7991 11.4043L55.7904 11.3999Z" fill="#4C4C4C"/>
<path d="M68.8318 12.2707L67.3557 13.9646C66.8549 14.3173 66.3367 14.4392 65.8012 14.3216L60.6455 13.2025V11.4042L64.2118 12.1793C64.6603 12.2751 65.0304 12.2402 65.3265 12.066L65.775 11.5392L60.7718 10.4505L61.1201 8.83941L67.016 10.1196L67.5299 9.53612L61.4816 8.22543L61.647 7.46776L61.8081 6.72315L62.7356 2.4471L64.1291 2.75191L65.5399 3.05672L69.1845 3.84923L69.3413 3.13075L62.5397 1.6546L62.888 0.043457L79.2825 3.60103L78.9341 5.21217L72.1499 3.74037L71.9932 4.45885L75.5681 5.23394L76.9616 5.53439L78.3724 5.8392L77.4057 10.2938C77.201 11.1734 76.5566 11.5 75.4723 11.2605L70.652 10.2154L70.1207 10.7945L70.4735 10.8729C71.3008 11.0602 71.8974 11.4695 72.2631 12.0965L73.7088 13.8688C73.9265 14.1605 74.2096 14.3478 74.5579 14.4218L76.8266 14.9138L76.4521 16.6338L72.9598 15.8762C72.1543 15.702 71.5838 15.4015 71.2529 14.9835L69.424 12.6321C69.2368 12.4754 69.0365 12.3578 68.8318 12.2751V12.2707ZM68.4225 7.35019L64.7779 6.55769L64.608 7.32842L68.2527 8.12093L68.4225 7.35019ZM68.858 5.34715L65.2133 4.55465L65.0565 5.27313L68.7012 6.06563L68.858 5.34715ZM71.0613 8.73055L74.2183 9.41419C74.4969 9.47515 74.6624 9.39242 74.7103 9.16599L74.8061 8.7349L71.2268 7.95981L71.0613 8.73055ZM71.5098 6.67525L75.0892 7.45034L75.2459 6.73186L71.6666 5.95677L71.5098 6.67525Z" fill="#4C4C4C"/>
<path d="M81.3887 13.355L84.2714 9.35332L83.7271 8.96142L84.82 7.44608L85.3643 7.83797L86.2483 6.61438L88.5213 8.25165L87.6373 9.47524L88.7129 10.2503L89.5968 9.02673L91.8698 10.664L90.9859 11.8876L91.4605 12.2272L90.3676 13.7469L89.8929 13.4073L87.1322 17.2392L84.3541 17.9185L84.4542 19.4251C84.5936 19.743 84.8505 20.0347 85.2206 20.3004L85.5559 20.5398L84.463 22.0552L82.9999 21.0014C82.4599 20.6139 82.1203 20.1958 81.9722 19.7517L81.8503 18.5368L80.9184 18.7719C80.3219 18.8329 79.8385 18.7284 79.4684 18.4628L77.9749 17.3872L78.7586 15.6498L79.3726 16.0896C79.6774 16.2986 80.0432 16.3944 80.4743 16.3857L81.6282 16.107L81.3844 13.355H81.3887ZM85.1335 15.2144L87.6199 11.7657L86.5444 10.9906L84.1146 14.3609L84.1799 15.4495L85.1335 15.2144ZM89.9408 24.3282C89.4009 25.0554 88.6824 25.0946 87.781 24.4458L85.4514 22.7693L86.2396 21.0319L87.5633 21.9855C87.7941 22.151 87.9813 22.1423 88.1163 21.955L90.2848 18.9418L88.0379 17.3263L89.1309 15.8109L91.3778 17.4264L92.3314 16.1027L95.2402 15.6193L91.5302 12.9457L92.6232 11.4304L98.9284 15.9721L97.7353 17.6224L94.2517 18.3409L93.7031 19.1029L95.8803 20.6705L94.7873 22.1858L92.6101 20.6182L89.9365 24.3282H89.9408Z" fill="#4C4C4C"/>
<path d="M102.77 40.5353L99.5734 35.236L98.9421 35.6148L102.53 41.5586L101.023 42.4687L92.3582 28.1078L93.8648 27.1977L97.4615 33.1589L98.0886 32.7801L94.8489 27.4111L95.6545 26.9234L95.4846 26.6447L96.4949 25.5561L96.9913 26.3791C97.1698 26.6578 97.3962 26.8015 97.6706 26.8102L98.0842 26.8798L97.1001 25.2469L98.4152 24.4544L98.9551 25.3514L102.669 23.1133L102.164 22.2729L103.479 21.4803L103.984 22.3208L104.516 21.9985L106.001 24.4544L105.465 24.7767L110.055 32.3838L110.59 32.0616L112.075 34.5175L111.539 34.8397L112.036 35.6627L110.721 36.4552L110.224 35.6322L106.51 37.8704L107.076 38.811L105.761 39.6035L104.751 37.927L104.664 38.1622C104.507 38.4583 104.511 38.7413 104.677 39.0156L105.191 39.8691L103.971 40.605L103.614 40.0172L102.761 40.531L102.77 40.5353ZM102.918 34.8833L99.9436 29.9541L98.0668 29.5796C98.0276 29.5622 97.9797 29.5535 97.9318 29.5404L99.4036 31.9832L100.079 31.5739L101.563 34.0298L100.888 34.4391L102.317 36.8079C102.347 36.5728 102.413 36.3507 102.508 36.133L102.918 34.8833ZM105.034 35.4145L105.569 35.0923L100.98 27.4851L100.449 27.8073L105.038 35.4145H105.034ZM106.597 34.4696L107.176 34.1169L102.587 26.5097L102.008 26.8624L106.597 34.4696ZM108.213 33.4942L108.744 33.172L104.154 25.5648L103.619 25.887L108.208 33.4942H108.213Z" fill="#4C4C4C"/>
<path d="M108.119 49.9497L107.253 43.736L108.995 43.4921L109.861 49.7059L110.919 49.5578L110.053 43.3441L111.15 43.1917L111.045 42.4427L112.896 42.1858L112.992 42.8825C113.031 43.1525 113.149 43.3179 113.353 43.3702L114.969 44.2193L116.65 56.2898H116.637L115.248 57.8748C115.147 57.9575 115.113 58.1056 115.143 58.3233L115.217 58.8676L113.366 59.1245L113.262 58.3756L112.165 58.528L111.311 52.4013L110.253 52.5493L111.106 58.676L109.365 58.9199L108.511 52.7932L104.71 53.3201L105.646 60.0607L103.795 60.3176L101.509 43.9058L103.36 43.6489L104.309 50.4766L108.111 49.9497H108.119ZM106.473 47.3676C106.29 47.4721 106.225 47.7029 106.277 48.0556L106.434 49.1964L104.91 49.4098L104.523 46.6186C104.392 45.665 104.623 45.0423 105.228 44.7506L106.617 43.9842L107.031 46.9626L106.473 47.3719V47.3676ZM108.703 58.946L107.161 58.1187C106.434 57.8617 106.02 57.3566 105.916 56.6077L105.616 54.4609L107.083 53.8382L107.201 54.6743C107.27 55.162 107.462 55.4581 107.784 55.5626L108.267 55.8239L108.703 58.9373V58.946ZM113.654 55.6366C113.71 55.5713 113.763 55.5278 113.819 55.5104L114.56 54.8006L113.379 46.3399L112.535 45.9916C112.448 45.9567 112.365 45.9219 112.295 45.8871L113.654 55.641V55.6366Z" fill="#4C4C4C"/>
<path d="M117.03 61.9636H0V86.0001H117.03V61.9636Z" fill="#4B4B4B"/>
<path d="M50.7236 60.2349C47.7713 61.6631 43.2862 61.3539 40.4384 60.0302C32.1868 60.0302 24.4489 59.9257 16.4019 60.0302C15.5877 45.0553 22.0061 33.3419 31.9865 24.8899C34.9388 22.5473 38.3004 20.4092 41.8667 18.8808C46.0426 17.2523 50.9326 15.824 56.1274 15.4191C58.3699 14.5003 60.6081 13.8907 63.5604 14.0953L61.8317 15.5236C80.0637 17.052 94.3245 29.7843 99.11 45.9784C100.129 50.6638 101.043 54.6351 100.638 60.1347C100.508 60.0999 50.7279 60.2349 50.7279 60.2349H50.7236Z" fill="#FF0000"/>
<path d="M62.1335 14.6005C60.7096 15.8241 59.9955 17.9621 60.4005 20.1002C61.3193 21.8332 62.3382 23.157 61.8244 25.3951C61.1102 27.7378 59.891 29.9804 57.5483 30.7946C55.8153 32.323 54.596 33.7469 54.6962 36.2943L55.3101 38.3321C53.2723 36.7036 52.1532 33.0372 52.9675 29.4709C53.1721 28.4519 53.5771 27.433 54.0865 26.5186L53.6772 26.3139C51.7439 29.0659 51.844 34.0561 53.4726 36.9083L54.6962 38.7415C50.3156 36.4989 48.2777 32.1184 48.3822 26.8234C48.9919 21.5284 52.6583 17.0477 57.4482 15.3146C58.9766 14.9053 60.4048 14.5004 62.1335 14.6005Z" fill="white"/>
<path d="M38.5033 30.3895C40.441 30.4897 42.1697 29.2704 43.9028 30.1849C45.9407 31.4085 48.3835 33.1415 48.6883 35.8892C49.3023 38.2319 50.9308 40.2697 53.4782 40.5745C54.0878 40.7792 55.1067 40.4744 55.4115 40.8794C53.4782 41.8983 50.2167 42.3076 48.0787 41.489C46.3456 40.8794 44.8172 40.0651 43.4935 38.737L43.1887 38.9416C45.3267 41.6936 49.3023 42.8127 53.3737 42.3033C53.9833 41.8939 55.0022 41.6936 55.5117 41.489L55.4072 41.7938C53.1647 43.627 50.822 45.3601 47.4647 45.3601C41.4556 45.5647 37.075 41.8983 34.8325 37.4132C33.4042 34.4566 33.2039 29.9759 34.323 26.7188C34.9327 28.552 36.6657 29.8757 38.4989 30.3852L38.5033 30.3895Z" fill="white"/>
<path d="M82.8095 35.6846C83.1143 36.3988 83.319 37.213 83.5236 38.0273C82.4002 36.7036 80.0575 36.7036 78.2287 37.1085C76.6001 38.1275 75.5812 40.0652 73.4388 40.4702C70.9045 40.8708 69.7375 40.6356 68.3441 39.8605C66.2061 38.0273 63.9635 35.8893 60.6019 36.8037C59.6831 37.1085 59.178 37.8227 58.2592 38.0273C59.8878 34.461 63.9635 32.6278 68.2396 33.0371C68.7491 32.8325 69.3587 33.7513 69.3587 32.937C69.3587 32.4275 68.9537 32.7323 68.9537 32.6322C65.3874 32.0182 61.5164 33.0371 59.1737 35.689L57.8499 37.6224L57.6453 37.4177C58.2549 33.1416 61.4118 29.6755 65.0783 28.3518C70.0685 25.9089 76.2822 27.9425 79.7484 31.3041C80.9719 32.728 82.091 33.9516 82.8052 35.6846H82.8095Z" fill="white"/>
<path d="M72.3181 46.993C74.1513 50.3546 73.742 56.0589 71.9088 59.4205C70.8898 61.0491 69.5661 62.4773 68.0377 63.6966C68.2423 61.5585 67.6284 59.1114 65.695 58.1969C63.3523 57.4872 61.4146 55.5494 61.2143 52.9019V53.0021C60.2998 49.2355 64.0664 45.4646 61.0096 42.103L59.3767 40.3786C62.7383 40.9882 65.3553 43.2482 66.5746 46.305C66.9839 47.1193 67.3453 48.3167 67.5456 49.2355C67.7503 49.2355 67.7329 49.4402 67.7329 49.131C67.1189 44.6503 63.7616 40.9839 59.4812 40.0651C65.4903 38.7413 69.8709 42.7126 72.3137 46.9886L72.3181 46.993Z" fill="white" stroke="#FF0000" stroke-width="1.5" stroke-linecap="round" stroke-linejoin="round"/>
<path d="M57.2424 42.7126C57.5472 47.7028 55.1044 50.8597 51.3334 52.8976C51.5381 52.9977 51.3334 53.4071 51.6383 53.3069C55.1 51.5738 57.4427 48.2122 57.852 44.241L57.6474 42.6124L57.9522 42.9172C59.9901 46.7883 59.0713 52.4926 56.4238 55.5494C54.4904 57.9923 51.8386 59.8255 48.5814 60.4395C44.2009 61.1536 41.2486 60.2348 38.1918 58.3014L37.887 58.0968C40.025 57.792 41.9627 56.4682 42.4722 54.3302C42.372 51.5782 43.5913 49.4402 45.8338 48.5257C48.3811 46.1831 53.3713 48.6259 55.6095 45.6736C56.4238 44.8593 56.6284 43.7402 56.9332 42.6168L57.2381 42.7169L57.2424 42.7126Z" fill="white"/>
<path d="M56.5821 24.6156L57.4486 22.8521L55.9202 23.6663L54.3918 22.4427L54.7968 24.276C54.1871 24.4806 53.1682 25.1947 53.1682 25.1947L54.9013 25.4996L55.2061 27.1281L55.9202 25.5997C56.5298 25.5997 57.0437 25.6999 57.7534 25.8044L56.5821 24.6156Z" fill="#FF0000" stroke="#FF0000" stroke-width="1.79"/>
<path d="M73.744 35.1751L72.5247 34.056L73.339 32.3229L71.6059 33.1372L70.4868 31.8135C70.4868 31.8135 70.587 33.1372 70.587 33.6467L69.0586 34.461L70.8918 34.7658L71.0965 36.599L72.1154 34.9704V35.0706L73.744 35.1707V35.1751Z" fill="#FF0000" stroke="#FF0000" stroke-width="1.79"/>
<path d="M43.7953 34.7701L42.2669 35.6845L40.9431 34.4609L41.3524 36.0938L39.7239 37.1128L41.4526 37.3131L41.8619 39.0462L42.6762 37.5177L44.4049 37.8226L43.1856 36.6033L43.7953 34.7701Z" fill="#FF0000" stroke="#FF0000" stroke-width="1.79"/>
<path d="M68.9562 49.9453L67.3277 50.6594L66.0039 49.4358L66.3087 51.269L64.6802 52.1834C65.0851 52.1834 65.9038 52.2836 66.5134 52.3881L66.9227 54.1168C66.9227 54.1168 67.4322 53.198 67.5323 52.6886L69.3655 52.7887L68.142 51.5651L68.9562 49.9366V49.9453Z" fill="#FF0000" stroke="#FF0000" stroke-width="1.79"/>
<path d="M50.7249 51.7786L49.1965 52.5928C48.6871 52.288 48.1776 51.7786 47.7683 51.4738L48.0731 53.0022L46.5447 54.1212L48.2777 54.3259C48.3779 54.9355 48.4824 55.445 48.5826 56.059C48.9919 55.6497 49.1965 55.04 49.5013 54.5306L51.3346 54.7309L50.1153 53.4071L50.7249 51.7786Z" fill="#FF0000" stroke="#FF0000" stroke-width="1.79"/>
<path d="M4.19458 65.3295H10.0513V67.2193H8.17017V72.5317H6.07569V67.2193H4.19458V65.3295Z" fill="white"/>
<path d="M10.75 65.3294H12.5963V67.9508C12.9708 67.4196 13.3844 67.1409 14.0071 67.1409C15.2307 67.1409 15.8098 67.9508 15.8098 69.3921V72.5317H13.9636V69.7579C13.9636 69.2397 13.8373 68.7781 13.3148 68.7781C12.7487 68.7781 12.5963 69.1874 12.5963 69.858V72.5273H10.75V65.3251V65.3294Z" fill="white"/>
<path d="M18.3658 70.3849C18.3658 71.0032 18.7925 71.4169 19.2802 71.4169C19.572 71.4169 19.8376 71.2645 19.9726 70.9553H21.7361C21.4183 72.2573 20.2469 72.6841 19.1627 72.6841C17.6735 72.6841 16.5195 71.7217 16.5195 69.9625C16.5195 68.2033 17.6647 67.1409 19.154 67.1409C20.874 67.1409 21.9147 68.482 21.8885 70.3849H18.3658ZM20.0423 69.3224C20.0423 68.8434 19.6591 68.4124 19.228 68.4124C18.6793 68.4124 18.3658 68.7607 18.3658 69.3224H20.0423Z" fill="white"/>
<path d="M25.7559 72.5362V65.334H28.8083C30.2453 65.334 31.3905 65.7128 31.3905 67.1454C31.3905 67.8857 30.9638 68.4256 30.5544 68.7174C31.2468 68.9177 31.6213 69.5883 31.6213 70.3677C31.6213 71.9789 30.5283 72.5406 28.8693 72.5406H25.7559V72.5362ZM27.8503 67.0148V68.2166H28.7212C29.1393 68.2166 29.4397 68.0076 29.4397 67.5852C29.4397 67.0235 29.0304 67.0148 28.5862 67.0148H27.8503ZM27.8503 69.5273V70.8598H28.7648C29.2786 70.8598 29.6705 70.7378 29.6705 70.1979C29.6705 69.5665 29.1828 69.5273 28.5166 69.5273H27.8503Z" fill="white"/>
<path d="M34.1439 70.3849C34.1439 71.0032 34.5706 71.4169 35.0583 71.4169C35.3501 71.4169 35.6157 71.2645 35.7507 70.9553H37.5142C37.1963 72.2573 36.025 72.6841 34.9407 72.6841C33.4515 72.6841 32.2976 71.7217 32.2976 69.9625C32.2976 68.2033 33.4428 67.1409 34.932 67.1409C36.652 67.1409 37.6927 68.482 37.6666 70.3849H34.1439ZM35.8203 69.3224C35.8203 68.8434 35.4372 68.4124 35.0017 68.4124C34.4531 68.4124 34.1395 68.7607 34.1395 69.3224H35.816H35.8203Z" fill="white"/>
<path d="M41.4352 72.5362C39.0142 72.6886 38.7181 72.497 38.7181 70.6856V68.4953H38.0605V67.2935H38.7442V65.6649H40.5643V67.2935H41.4526V68.4953H40.5643V70.3982C40.5643 70.8772 40.6253 71.047 41.1435 71.047H41.4352V72.5362Z" fill="white"/>
<path d="M45.3779 72.5362C42.9568 72.6886 42.6607 72.497 42.6607 70.6856V68.4953H42.0032V67.2935H42.6868V65.6649H44.507V67.2935H45.3953V68.4953H44.507V70.3982C44.507 70.8772 44.5679 71.047 45.0861 71.047H45.3779V72.5362Z" fill="white"/>
<path d="M47.942 70.3849C47.942 71.0032 48.3687 71.4169 48.8564 71.4169C49.1482 71.4169 49.4138 71.2645 49.5488 70.9553H51.3123C50.9944 72.2573 49.8231 72.6841 48.7388 72.6841C47.2496 72.6841 46.0957 71.7217 46.0957 69.9625C46.0957 68.2033 47.2409 67.1409 48.7301 67.1409C50.4501 67.1409 51.4908 68.482 51.4647 70.3849H47.942ZM49.6184 69.3224C49.6184 68.8434 49.2352 68.4124 48.8042 68.4124C48.2555 68.4124 47.942 68.7607 47.942 69.3224H49.6184Z" fill="white"/>
<path d="M52.1997 67.2933H53.8761V68.3558H53.8935C54.1504 67.5372 54.6033 67.1453 55.3218 67.1453C55.4002 67.1453 55.4829 67.167 55.5613 67.1757V69.2572C55.435 69.2397 55.3044 69.1962 55.1781 69.1962C54.4248 69.1962 54.0416 69.5968 54.0416 70.729V72.5404H52.1953V67.2977L52.1997 67.2933Z" fill="white"/>
<path d="M59.2476 72.5362V65.334H61.342V67.7681H63.319V65.334H65.4134V72.5362H63.319V69.745H61.342V72.5362H59.2476Z" fill="white"/>
<path d="M68.9713 67.1409C70.613 67.1409 71.6232 68.2338 71.6232 69.8624C71.6232 71.7827 70.4693 72.6841 68.9801 72.6841C67.4908 72.6841 66.3369 71.7653 66.3369 69.9712C66.3369 68.1772 67.4038 67.1409 68.9713 67.1409ZM68.1832 69.8624C68.1832 70.8552 68.5098 71.2819 68.9801 71.2819C69.4765 71.2819 69.7769 70.8508 69.7769 69.8624C69.7769 69.0917 69.4765 68.5125 68.9975 68.543C68.3661 68.543 68.1832 69.2745 68.1832 69.8624Z" fill="white"/>
<path d="M72.3718 67.2933H74.057V68.1119C74.475 67.4805 74.9279 67.1409 75.6289 67.1409C76.8525 67.1409 77.4317 67.9508 77.4317 69.3921V72.5317H75.5854V69.7579C75.5854 69.2397 75.4591 68.7781 74.9366 68.7781C74.3662 68.7781 74.2181 69.1874 74.2181 69.858V72.5273H72.3718V67.2846V67.2933Z" fill="white"/>
<path d="M80.26 72.806C80.26 72.867 80.2948 72.9541 80.3776 73.0368C80.456 73.1152 80.5909 73.1674 80.7782 73.1674C81.3094 73.1674 81.5228 72.8975 81.5228 72.1485V71.7174C81.2572 72.0179 80.8566 72.2878 80.1903 72.2878C78.9058 72.2878 78.1655 71.147 78.1655 69.8058C78.1655 68.4647 78.7142 67.1453 80.2426 67.1453C80.8 67.1453 81.3268 67.4762 81.6534 67.9857V67.2933H83.2776V71.5171C83.2776 73.0891 83.1165 74.317 80.8261 74.317C79.1845 74.317 78.4921 73.5768 78.405 72.806H80.26ZM80.0118 69.8232C80.0118 70.3458 80.2426 70.8335 80.739 70.8422C81.3051 70.8727 81.5184 70.3196 81.5184 69.7623C81.5184 69.2049 81.3225 68.6301 80.739 68.6301C80.1816 68.6214 80.0118 69.1396 80.0118 69.8189V69.8232Z" fill="white"/>
<path d="M87.4025 65.3295H89.497V67.6634L91.3346 65.3295H93.7905L91.4565 68.0423L94.0387 72.5361H91.5262L89.9891 69.6665L89.4927 70.2587V72.5404H87.3982V65.3382L87.4025 65.3295Z" fill="white"/>
<path d="M97.0744 67.1409C98.716 67.1409 99.7262 68.2338 99.7262 69.8624C99.7262 71.7827 98.5723 72.6841 97.0831 72.6841C95.5939 72.6841 94.4399 71.7653 94.4399 69.9712C94.4399 68.1772 95.5024 67.1409 97.0744 67.1409ZM96.2862 69.8624C96.2862 70.8552 96.6128 71.2819 97.0831 71.2819C97.5795 71.2819 97.8799 70.8508 97.8799 69.8624C97.8799 69.0917 97.5795 68.5125 97.1005 68.543C96.4691 68.543 96.2862 69.2745 96.2862 69.8624Z" fill="white"/>
<path d="M100.475 67.2933H102.16V68.1119C102.578 67.4805 103.031 67.1409 103.732 67.1409C104.956 67.1409 105.535 67.9508 105.535 69.3921V72.5317H103.689V69.7579C103.689 69.2397 103.562 68.7781 103.04 68.7781C102.474 68.7781 102.321 69.1874 102.321 69.858V72.5273H100.475V67.2846V67.2933Z" fill="white"/>
<path d="M108.36 72.806C108.36 72.867 108.394 72.9541 108.477 73.0368C108.556 73.1152 108.691 73.1674 108.878 73.1674C109.409 73.1674 109.622 72.8975 109.622 72.1485V71.7174C109.357 72.0179 108.956 72.2878 108.29 72.2878C107.001 72.2878 106.265 71.147 106.265 69.8058C106.265 68.4647 106.814 67.1453 108.342 67.1453C108.9 67.1453 109.422 67.4762 109.753 67.9857V67.2933H111.377V71.5171C111.377 73.0891 111.216 74.317 108.93 74.317C107.288 74.317 106.596 73.5768 106.509 72.806H108.364H108.36ZM108.111 69.8232C108.111 70.3458 108.342 70.8335 108.839 70.8422C109.409 70.8727 109.618 70.3196 109.618 69.7623C109.618 69.2049 109.422 68.6301 108.839 68.6301C108.281 68.6214 108.111 69.1396 108.111 69.8189V69.8232Z" fill="white"/>
<path d="M31.4402 82.6776V75.4753H36.4086V77.1562H33.5347V78.4668H35.8251V80.1476H33.5347V82.6776H31.4402Z" fill="white"/>
<path d="M39.6437 77.2823C41.2853 77.2823 42.2956 78.3753 42.2956 80.0039C42.2956 81.9242 41.1416 82.8255 39.6524 82.8255C38.1632 82.8255 37.0093 81.9068 37.0093 80.1127C37.0093 78.3187 38.0761 77.2823 39.6437 77.2823ZM38.8556 80.0039C38.8556 80.9967 39.1821 81.4234 39.6524 81.4234C40.1488 81.4234 40.4493 80.9923 40.4493 80.0039C40.4493 79.2331 40.1488 78.654 39.6698 78.6845C39.0384 78.6845 38.8556 79.416 38.8556 80.0039Z" fill="white"/>
<path d="M48.0997 82.6775H46.3884V81.9068C45.9268 82.6253 45.474 82.8256 44.7119 82.8256C43.7017 82.8256 43.0442 82.1245 43.0442 80.6266V77.4348H44.8905V80.2652C44.8905 80.9837 45.1125 81.2145 45.5567 81.2145C46.0879 81.2145 46.2578 80.766 46.2578 79.956V77.4348H48.104V82.6775H48.0997Z" fill="white"/>
<path d="M48.9602 77.4348H50.6454V78.2534C51.0634 77.622 51.5163 77.2823 52.2173 77.2823C53.4409 77.2823 54.0201 78.0923 54.0201 79.5336V82.6731H52.1738V79.8994C52.1738 79.3768 52.0475 78.9196 51.525 78.9196C50.9589 78.9196 50.8065 79.3289 50.8065 79.9995V82.6688H48.9602V77.426V77.4348Z" fill="white"/>
<path d="M58.2867 82.6775V81.9765C57.8513 82.6166 57.4507 82.8256 56.8585 82.8256C55.4564 82.8256 54.7466 81.6368 54.7466 80.1563C54.7466 78.4145 55.6088 77.2824 56.7148 77.2824C57.2983 77.2824 57.7076 77.4435 58.0995 77.9617V75.4709H59.9458V82.6732H58.2867V82.6775ZM58.1648 80.1041C58.1648 79.5249 57.9863 78.8935 57.3767 78.8935C56.767 78.8935 56.5972 79.5554 56.5972 80.1345C56.5972 80.6832 56.7235 81.3233 57.3244 81.3233C57.9645 81.3233 58.1692 80.7137 58.1692 80.1041H58.1648Z" fill="white"/>
<path d="M64.0911 82.6775L64.004 82.1158C63.4815 82.6644 62.9459 82.8255 62.2535 82.8255C61.3739 82.8255 60.5945 82.3378 60.5945 81.2449C60.5945 78.863 63.9038 79.9429 63.9038 78.9632C63.9038 78.5843 63.4945 78.5321 63.3029 78.5321C63.046 78.5321 62.6977 78.593 62.6541 79.0415H60.8775C60.8775 77.9312 61.5786 77.2823 63.4162 77.2823C65.6151 77.2823 65.7501 78.2055 65.7501 79.4552V81.9068C65.7501 82.2072 65.7588 82.3596 65.9983 82.5773V82.6775H64.0911ZM63.9038 80.3566C63.3029 80.6875 62.5017 80.5264 62.5017 81.2057C62.5017 81.467 62.7238 81.6455 63.0852 81.6455C63.734 81.6455 63.9474 81.0751 63.8995 80.3566H63.9038Z" fill="white"/>
<path d="M69.79 82.6774C67.3689 82.8255 67.0728 82.6382 67.0728 80.8268V78.6365H66.4153V77.4347H67.0989V75.8018H68.9191V77.4347H69.8074V78.6365H68.9191V80.5394C68.9191 81.0184 68.98 81.1882 69.4982 81.1882H69.79V82.6774Z" fill="white"/>
<path d="M70.7798 75.2838H72.6261V76.7643H70.7798V75.2838ZM70.7798 82.6776V77.4349H72.6261V82.6776H70.7798Z" fill="white"/>
<path d="M76.1325 77.2823C77.7741 77.2823 78.7843 78.3753 78.7843 80.0039C78.7843 81.9242 77.6304 82.8255 76.1412 82.8255C74.652 82.8255 73.498 81.9068 73.498 80.1127C73.498 78.3187 74.5649 77.2823 76.1325 77.2823ZM75.3443 80.0039C75.3443 80.9967 75.6753 81.4234 76.1412 81.4234C76.6376 81.4234 76.9381 80.9923 76.9381 80.0039C76.9381 79.2331 76.6376 78.654 76.1586 78.6845C75.5272 78.6845 75.34 79.416 75.34 80.0039H75.3443Z" fill="white"/>
<path d="M79.5295 77.4348H81.2147V78.2534C81.6327 77.622 82.0856 77.2823 82.7867 77.2823C84.0102 77.2823 84.5894 78.0923 84.5894 79.5336V82.6731H82.7431V79.8994C82.7431 79.3768 82.6168 78.9196 82.0943 78.9196C81.5282 78.9196 81.3758 79.3289 81.3758 79.9995V82.6688H79.5295V77.426V77.4348Z" fill="white"/>
</svg>
